<mxfile host="app.diagrams.net" modified="2023-03-22T02:01:21.689Z" agent="5.0 (Macintosh; Intel Mac OS X 10_15_7) AppleWebKit/537.36 (KHTML, like Gecko) Chrome/111.0.0.0 Safari/537.36" etag="m9D2cNaYab3SXHa7YNlZ" version="21.0.8" type="github">
  <diagram name="第 1 页" id="PpjtCxbF7JhDGXMTzmA-">
    <mxGraphModel dx="955" dy="553" grid="1" gridSize="10" guides="1" tooltips="1" connect="1" arrows="1" fold="1" page="1" pageScale="1" pageWidth="827" pageHeight="1169" math="0" shadow="0">
      <root>
        <mxCell id="0" />
        <mxCell id="1" parent="0" />
        <mxCell id="3sCPTJeTEDTR29Mkuxmm-1" value="组织" style="whiteSpace=wrap;html=1;align=center;fillColor=#dae8fc;strokeColor=#6c8ebf;" vertex="1" parent="1">
          <mxGeometry x="550" y="340" width="100" height="40" as="geometry" />
        </mxCell>
        <mxCell id="3sCPTJeTEDTR29Mkuxmm-2" value="应用" style="whiteSpace=wrap;html=1;align=center;fillColor=#dae8fc;strokeColor=#6c8ebf;" vertex="1" parent="1">
          <mxGeometry x="750" y="340" width="100" height="40" as="geometry" />
        </mxCell>
        <mxCell id="3sCPTJeTEDTR29Mkuxmm-17" value="" style="edgeStyle=orthogonalEdgeStyle;rounded=0;orthogonalLoop=1;jettySize=auto;html=1;" edge="1" parent="1" source="3sCPTJeTEDTR29Mkuxmm-11" target="3sCPTJeTEDTR29Mkuxmm-1">
          <mxGeometry relative="1" as="geometry" />
        </mxCell>
        <mxCell id="3sCPTJeTEDTR29Mkuxmm-11" value="乐桃管理后台" style="whiteSpace=wrap;html=1;align=center;fillColor=#dae8fc;strokeColor=#6c8ebf;" vertex="1" parent="1">
          <mxGeometry x="550" y="230" width="100" height="40" as="geometry" />
        </mxCell>
        <mxCell id="3sCPTJeTEDTR29Mkuxmm-12" value="" style="endArrow=none;html=1;rounded=0;exitX=0.5;exitY=1;exitDx=0;exitDy=0;entryX=0.5;entryY=0;entryDx=0;entryDy=0;" edge="1" parent="1" source="3sCPTJeTEDTR29Mkuxmm-11" target="3sCPTJeTEDTR29Mkuxmm-1">
          <mxGeometry relative="1" as="geometry">
            <mxPoint x="810" y="250" as="sourcePoint" />
            <mxPoint x="970" y="250" as="targetPoint" />
          </mxGeometry>
        </mxCell>
        <mxCell id="3sCPTJeTEDTR29Mkuxmm-13" value="N" style="resizable=0;html=1;whiteSpace=wrap;align=right;verticalAlign=bottom;" connectable="0" vertex="1" parent="3sCPTJeTEDTR29Mkuxmm-12">
          <mxGeometry x="1" relative="1" as="geometry" />
        </mxCell>
        <mxCell id="3sCPTJeTEDTR29Mkuxmm-14" value="功能权限树" style="whiteSpace=wrap;html=1;align=center;fillColor=#dae8fc;strokeColor=#6c8ebf;" vertex="1" parent="1">
          <mxGeometry x="750" y="460" width="100" height="40" as="geometry" />
        </mxCell>
        <mxCell id="3sCPTJeTEDTR29Mkuxmm-18" value="" style="endArrow=none;html=1;rounded=0;entryX=0.5;entryY=0;entryDx=0;entryDy=0;exitX=0.5;exitY=1;exitDx=0;exitDy=0;" edge="1" parent="1" source="3sCPTJeTEDTR29Mkuxmm-2" target="3sCPTJeTEDTR29Mkuxmm-14">
          <mxGeometry relative="1" as="geometry">
            <mxPoint x="790" y="380" as="sourcePoint" />
            <mxPoint x="790" y="540" as="targetPoint" />
          </mxGeometry>
        </mxCell>
        <mxCell id="3sCPTJeTEDTR29Mkuxmm-19" value="1" style="resizable=0;html=1;whiteSpace=wrap;align=right;verticalAlign=bottom;" connectable="0" vertex="1" parent="3sCPTJeTEDTR29Mkuxmm-18">
          <mxGeometry x="1" relative="1" as="geometry" />
        </mxCell>
        <mxCell id="3sCPTJeTEDTR29Mkuxmm-20" value="乐桃管理后台" style="whiteSpace=wrap;html=1;align=center;fillColor=#dae8fc;strokeColor=#6c8ebf;" vertex="1" parent="1">
          <mxGeometry x="50" y="230" width="100" height="40" as="geometry" />
        </mxCell>
        <mxCell id="3sCPTJeTEDTR29Mkuxmm-21" value="应用" style="whiteSpace=wrap;html=1;align=center;fillColor=#dae8fc;strokeColor=#6c8ebf;" vertex="1" parent="1">
          <mxGeometry x="50" y="330" width="100" height="40" as="geometry" />
        </mxCell>
        <mxCell id="3sCPTJeTEDTR29Mkuxmm-22" value="" style="endArrow=none;html=1;rounded=0;exitX=0.5;exitY=1;exitDx=0;exitDy=0;entryX=0.5;entryY=0;entryDx=0;entryDy=0;" edge="1" parent="1" target="3sCPTJeTEDTR29Mkuxmm-21">
          <mxGeometry relative="1" as="geometry">
            <mxPoint x="99.62" y="260" as="sourcePoint" />
            <mxPoint x="99.62" y="330" as="targetPoint" />
          </mxGeometry>
        </mxCell>
        <mxCell id="3sCPTJeTEDTR29Mkuxmm-23" value="N" style="resizable=0;html=1;whiteSpace=wrap;align=right;verticalAlign=bottom;" connectable="0" vertex="1" parent="3sCPTJeTEDTR29Mkuxmm-22">
          <mxGeometry x="1" relative="1" as="geometry" />
        </mxCell>
        <mxCell id="3sCPTJeTEDTR29Mkuxmm-25" value="组织" style="whiteSpace=wrap;html=1;align=center;fillColor=#dae8fc;strokeColor=#6c8ebf;" vertex="1" parent="1">
          <mxGeometry x="230" y="330" width="100" height="40" as="geometry" />
        </mxCell>
        <mxCell id="3sCPTJeTEDTR29Mkuxmm-27" value="" style="endArrow=none;html=1;rounded=0;exitX=1;exitY=0.5;exitDx=0;exitDy=0;entryX=0;entryY=0.5;entryDx=0;entryDy=0;" edge="1" parent="1" source="3sCPTJeTEDTR29Mkuxmm-21" target="3sCPTJeTEDTR29Mkuxmm-25">
          <mxGeometry relative="1" as="geometry">
            <mxPoint x="110" y="410" as="sourcePoint" />
            <mxPoint x="270" y="410" as="targetPoint" />
          </mxGeometry>
        </mxCell>
        <mxCell id="3sCPTJeTEDTR29Mkuxmm-28" value="N" style="resizable=0;html=1;whiteSpace=wrap;align=right;verticalAlign=bottom;" connectable="0" vertex="1" parent="3sCPTJeTEDTR29Mkuxmm-27">
          <mxGeometry x="1" relative="1" as="geometry" />
        </mxCell>
        <mxCell id="3sCPTJeTEDTR29Mkuxmm-29" value="功能权限树1" style="whiteSpace=wrap;html=1;align=center;fillColor=#dae8fc;strokeColor=#6c8ebf;" vertex="1" parent="1">
          <mxGeometry x="50" y="440" width="100" height="40" as="geometry" />
        </mxCell>
        <mxCell id="3sCPTJeTEDTR29Mkuxmm-31" value="" style="endArrow=none;html=1;rounded=0;exitX=0.5;exitY=1;exitDx=0;exitDy=0;entryX=0.5;entryY=0;entryDx=0;entryDy=0;" edge="1" parent="1" source="3sCPTJeTEDTR29Mkuxmm-21" target="3sCPTJeTEDTR29Mkuxmm-29">
          <mxGeometry relative="1" as="geometry">
            <mxPoint x="70" y="400" as="sourcePoint" />
            <mxPoint x="230" y="400" as="targetPoint" />
          </mxGeometry>
        </mxCell>
        <mxCell id="3sCPTJeTEDTR29Mkuxmm-32" value="1" style="resizable=0;html=1;whiteSpace=wrap;align=right;verticalAlign=bottom;" connectable="0" vertex="1" parent="3sCPTJeTEDTR29Mkuxmm-31">
          <mxGeometry x="1" relative="1" as="geometry" />
        </mxCell>
        <mxCell id="3sCPTJeTEDTR29Mkuxmm-35" value="功能权限树1-2" style="whiteSpace=wrap;html=1;align=center;fillColor=#dae8fc;strokeColor=#6c8ebf;" vertex="1" parent="1">
          <mxGeometry x="230" y="440" width="100" height="40" as="geometry" />
        </mxCell>
        <mxCell id="3sCPTJeTEDTR29Mkuxmm-38" value="" style="endArrow=none;html=1;rounded=0;exitX=0.5;exitY=1;exitDx=0;exitDy=0;entryX=0.5;entryY=0;entryDx=0;entryDy=0;" edge="1" parent="1" source="3sCPTJeTEDTR29Mkuxmm-25" target="3sCPTJeTEDTR29Mkuxmm-35">
          <mxGeometry relative="1" as="geometry">
            <mxPoint x="240" y="400" as="sourcePoint" />
            <mxPoint x="400" y="400" as="targetPoint" />
          </mxGeometry>
        </mxCell>
        <mxCell id="3sCPTJeTEDTR29Mkuxmm-39" value="1" style="resizable=0;html=1;whiteSpace=wrap;align=right;verticalAlign=bottom;" connectable="0" vertex="1" parent="3sCPTJeTEDTR29Mkuxmm-38">
          <mxGeometry x="1" relative="1" as="geometry" />
        </mxCell>
        <mxCell id="3sCPTJeTEDTR29Mkuxmm-40" value="乐桃管理后台应用下各对象关联" style="text;html=1;strokeColor=none;fillColor=none;align=center;verticalAlign=middle;whiteSpace=wrap;rounded=0;" vertex="1" parent="1">
          <mxGeometry y="180" width="300" height="20" as="geometry" />
        </mxCell>
        <mxCell id="3sCPTJeTEDTR29Mkuxmm-41" value="" style="endArrow=none;html=1;rounded=0;exitX=1;exitY=0.5;exitDx=0;exitDy=0;entryX=0;entryY=0.5;entryDx=0;entryDy=0;" edge="1" parent="1" source="3sCPTJeTEDTR29Mkuxmm-1" target="3sCPTJeTEDTR29Mkuxmm-2">
          <mxGeometry relative="1" as="geometry">
            <mxPoint x="570" y="420" as="sourcePoint" />
            <mxPoint x="730" y="420" as="targetPoint" />
          </mxGeometry>
        </mxCell>
        <mxCell id="3sCPTJeTEDTR29Mkuxmm-42" value="N" style="resizable=0;html=1;whiteSpace=wrap;align=right;verticalAlign=bottom;" connectable="0" vertex="1" parent="3sCPTJeTEDTR29Mkuxmm-41">
          <mxGeometry x="1" relative="1" as="geometry" />
        </mxCell>
      </root>
    </mxGraphModel>
  </diagram>
</mxfile>
